<svg xmlns="http://www.w3.org/2000/svg" viewBox="0 0 32 32">
    <g fill="#f97316">
        <path d="M7.453 25.589h17.094v3.128h-17.094v-3.128z"></path>
        <path
            d="M25.225 6.202c-0.52 0-1.023 0.060-1.509 0.171 0.556 0.831 0.981 1.757 1.246 2.748h-1.083c-1.026-3.379-4.165-5.838-7.879-5.838s-6.853 2.459-7.879 5.838h-1.083c0.265-0.991 0.69-1.917 1.246-2.748-0.485-0.111-0.989-0.171-1.509-0.171-3.742 0-6.775 3.033-6.775 6.774s3.033 6.776 6.775 6.776c0.229 0 0.454-0.012 0.678-0.034v4.62h17.094v-4.62c0.224 0.022 0.449 0.034 0.678 0.034 3.742 0 6.775-3.034 6.775-6.776s-3.033-6.774-6.775-6.774zM13.342 22.671h-1.042v-5.629h1.042v5.629zM19.7 22.671h-1.042v-5.629h1.042v5.629z">
        </path>
    </g>
</svg>