<svg aria-hidden="true" style="position: absolute; width: 0; height: 0; overflow: hidden;" version="1.1"
    xmlns="http://www.w3.org/2000/svg" xmlns:xlink="http://www.w3.org/1999/xlink">
    <defs>
        <symbol id="icon-youtube-logo" viewBox="0 0 32 32">
            <path
                d="M28.834 8.343c-0.246-1.547-1.66-2.899-3.226-3.079-2.883-0.332-6.224-0.522-9.608-0.522-3.387 0-6.729 0.19-10.018 0.559l0.404-0.037c-1.56 0.179-2.974 1.531-3.221 3.084-0.37 2.3-0.582 4.951-0.582 7.651 0 2.703 0.212 5.356 0.62 7.944l-0.037-0.286c0.246 1.547 1.661 2.899 3.226 3.078 2.881 0.332 6.22 0.522 9.603 0.522 0.002 0 0.004 0 0.006 0h-0c0.002 0 0.004 0 0.006 0 3.383 0 6.721-0.19 10.006-0.559l-0.398 0.036c1.56-0.179 2.975-1.531 3.221-3.084 0.37-2.3 0.582-4.951 0.582-7.651 0-2.703-0.212-5.356-0.62-7.943l0.037 0.286zM26.859 23.343c-0.103 0.646-0.817 1.328-1.47 1.404-2.817 0.325-6.081 0.51-9.389 0.51s-6.57-0.185-9.78-0.546l0.394 0.036c-0.654-0.075-1.37-0.758-1.472-1.399-0.356-2.209-0.559-4.755-0.559-7.349 0-2.592 0.203-5.136 0.594-7.618l-0.036 0.275c0.103-0.647 0.819-1.33 1.467-1.404 2.818-0.325 6.083-0.51 9.392-0.51 3.307 0 6.57 0.185 9.78 0.546l-0.394-0.036c0.654 0.075 1.37 0.758 1.472 1.399 0.356 2.209 0.559 4.755 0.559 7.349 0 2.592-0.203 5.136-0.594 7.618l0.036-0.275zM20.555 15.168l-6-4c-0.156-0.105-0.348-0.168-0.555-0.168-0.552 0-1 0.448-1 1v0 8c0 0 0 0 0 0 0 0.552 0.448 1 1 1 0.207 0 0.399-0.063 0.558-0.17l-0.004 0.002 6-4c0.27-0.182 0.445-0.486 0.445-0.832s-0.175-0.65-0.442-0.83l-0.004-0.002zM15 18.131v-4.263l3.197 2.131z">
            </path>
        </symbol>
        <symbol id="icon-facebook-logo" viewBox="0 0 32 32">
            <path
                d="M25.65 2.932c0-1.719-1.195-2.932-2.914-2.932h-0.036c-0.217 0-0.434 0-0.634 0-0.271 0-0.543 0-0.833 0s-0.561 0-0.851 0c-0.634 0-1.14 0-1.611 0.018-2.063 0.072-3.909 0.778-5.357 2.027-1.466 1.267-2.407 3.023-2.715 5.068-0.145 0.977-0.163 1.919-0.163 2.824-0.38 0-0.778 0-1.158 0-0.398 0-1.448 0-2.244 0.814-0.796 0.796-0.796 1.846-0.796 2.244 0 1.285 0 2.606 0 3.891 0 0.452 0 1.484 0.833 2.299 0.796 0.778 1.846 0.778 2.281 0.778 0.362 0 0.742 0 1.104 0v1.321c0 2.534-0.018 5.086-0.018 7.62 0 0.489-0.018 1.484 0.778 2.281 0.796 0.814 1.792 0.814 2.281 0.814 0.507 0 1.032 0 1.538 0h2.172c0.796 0 1.774 0 2.57-0.778 0.814-0.796 0.814-1.792 0.814-2.57v-8.652c0 0 0.109 0 0.163 0 0.543 0 1.086 0 1.629 0 1.828 0 2.986-1.158 2.986-3.005 0-1.303 0-2.661 0-4 0-0.398 0-1.43-0.814-2.226-0.796-0.778-1.81-0.796-2.208-0.796-0.326 0-0.67-0.054-0.995-0.054-0.235 0-0.489-0.036-0.724-0.036h-0.018c0 0 0-0.109 0-0.181 0.308 0 0.615 0.018 0.941 0.018s0.67 0.018 1.014 0c1.81-0.036 2.95-1.158 2.968-2.932 0-0.941 0-1.882 0-2.805 0.036-0.362 0.036-0.706 0.018-1.050zM23.478 6.751c0 0.615-0.181 0.778-0.833 0.796-0.851 0.018-1.683 0-2.534 0.036-1.068 0.036-1.502 0.489-1.538 1.557-0.036 0.995 0 2.009 0 3.095 0.326 0 0.652 0 0.977 0 0.163 0 0.326 0 0.489 0 0 0 0 0 0.018 0 0.471 0 0.959-0.054 1.43-0.054 0.326 0 0.652-0.018 0.977-0.018 0.706 0 0.869 0.145 0.869 0.851 0 1.321 0 2.661 0 3.982 0 0.652-0.181 0.833-0.833 0.833-0.543 0-1.068 0-1.611 0-0.76 0-1.611 0-2.335 0 0 0.253 0 0.471 0 0.688 0 3.385 0 6.787 0 10.172 0 1.158-0.036 1.177-1.213 1.177-0.724 0-1.448 0-2.172 0-0.507 0-1.032 0-1.538 0-0.778 0-0.887-0.127-0.887-0.923 0-3.457 0.018-6.932 0.018-10.389 0-0.217 0-0.434 0-0.724-0.724 0-1.357 0-1.991 0-0.434 0-0.869 0-1.285 0-0.778 0-0.941-0.145-0.941-0.905 0-1.285 0-2.588 0-3.873 0-0.742 0.163-0.905 0.887-0.905 0.434 0 0.851 0 1.285 0 0.652 0 1.303 0 1.973 0 0.018-0.253 0.018-0.471 0.036-0.688 0.036-1.321-0.036-2.679 0.163-3.982 0.471-3.131 2.824-5.14 5.991-5.249 0.507-0.018 1.032-0.018 1.538-0.018 0.561 0 1.122 0.036 1.683 0.036 0.217 0 0.452 0.036 0.67 0.036h0.018c0.507 0 0.742 0.217 0.742 0.724-0.036 1.249-0.036 2.48-0.054 3.746z">
            </path>
        </symbol>
        <symbol id="icon-clock" viewBox="0 0 32 32">
            <path
                d="M16 32c-8.823 0-16-7.177-16-16s7.177-16 16-16 16 7.177 16 16-7.177 16-16 16zM16 2.667c-7.352 0-13.333 5.981-13.333 13.333s5.981 13.333 13.333 13.333 13.333-5.981 13.333-13.333-5.981-13.333-13.333-13.333zM22.667 16c0-0.737-0.596-1.333-1.333-1.333h-4v-6.667c0-0.737-0.597-1.333-1.333-1.333s-1.333 0.596-1.333 1.333v8c0 0.737 0.597 1.333 1.333 1.333h5.333c0.737 0 1.333-0.596 1.333-1.333z">
            </path>
        </symbol>
        <symbol id="icon-linkedin" viewBox="0 0 32 32">
            <path
                d="M9.472 10.208h-6.72c-0.48 0-0.832 0.352-0.832 0.8v18.88c0 0.448 0.352 0.8 0.8 0.8h6.72c0.448 0 0.8-0.352 0.8-0.8v-18.88c0.032-0.448-0.352-0.8-0.768-0.8zM8.672 29.088h-5.152v-17.28h5.12v17.28z">
            </path>
            <path
                d="M6.080 0.48c-2.528 0-4.608 2.048-4.608 4.608 0 2.528 2.080 4.608 4.608 4.608s4.608-2.048 4.608-4.608c0-2.56-2.048-4.608-4.608-4.608zM6.080 8.064c-1.664 0-3.008-1.344-3.008-3.008s1.344-3.008 3.008-3.008c1.664 0 3.008 1.344 3.008 3.008s-1.344 3.008-3.008 3.008z">
            </path>
            <path
                d="M22.816 9.76c-1.408 0-2.72 0.352-3.84 0.992v-0.544h-7.296c-0.448 0-0.8 0.352-0.8 0.8v18.88c0 0.448 0.352 0.8 0.8 0.8h6.72c0.448 0 0.8-0.352 0.8-0.8v-9.344c0-2.88 0.8-3.104 1.888-3.104 0.96 0 1.44 0.16 1.44 3.264v9.184c0 0.448 0.352 0.8 0.8 0.8h6.72c0.448 0 0.8-0.352 0.8-0.8v-10.304c-0.032-4.544-0.96-9.824-8.032-9.824zM29.216 29.088h-5.12v-8.384c0-1.952 0-4.864-3.040-4.864-3.072 0-3.488 2.528-3.488 4.704v8.544h-5.088v-17.28h4.896v2.4l1.344-1.28c0.608-0.576 1.984-1.568 4.096-1.568 5.312 0 6.4 3.296 6.4 8.224v9.504z">
            </path>
        </symbol>
        <symbol id="icon-linkedin-logo" viewBox="0 0 32 32">
            <path
                d="M6.984 9.019h-6.062c-0.415 0-0.751 0.336-0.751 0.751v21.191c0 0.415 0.336 0.751 0.751 0.751h6.063c0.415 0 0.751-0.337 0.751-0.751v-21.191c-0.001-0.415-0.336-0.751-0.752-0.751zM6.233 30.209h-4.56v-19.688h4.56v19.688zM23.886 8.761c-2.943 0-4.869 1.27-5.988 2.375l-0.138-1.438c-0.038-0.386-0.362-0.679-0.747-0.679h-0.015l-5.526 0.106c-0.203 0.004-0.395 0.089-0.533 0.237s-0.212 0.345-0.203 0.548c0.069 1.547 0.067 3.356 0.064 5.45l-0.001 15.708c0 0.415 0.337 0.751 0.751 0.751h6.063c0.415 0 0.751-0.336 0.751-0.751v-12.25c0-0.626 0.054-1.078 0.161-1.347 0.378-0.962 1.625-1.957 3.056-1.957 1.854 0 2.961 1.41 2.961 3.774v11.78c0 0.415 0.337 0.751 0.751 0.751h5.956c0.415 0 0.751-0.336 0.751-0.751v-12.549c0-6.11-3.034-9.757-8.114-9.757zM30.498 30.316h-4.454v-11.029c0-3.206-1.752-5.276-4.463-5.276-2.151 0-3.9 1.499-4.452 2.906-0.183 0.456-0.267 1.061-0.267 1.9v11.499h-4.56l0.001-14.955c0.002-1.779 0.005-3.353-0.037-4.75l4.067-0.078 0.234 2.422c0.038 0.385 0.361 0.679 0.748 0.679h0.128c0.259 0 0.5-0.133 0.637-0.353 0.443-0.708 2.171-3.018 5.809-3.018 4.202 0 6.612 3.009 6.612 8.255v11.798h-0.001zM4.207 0.182c-2.438 0-4.207 1.68-4.207 3.996 0 2.314 1.734 3.993 4.123 3.993 2.463 0 4.25-1.679 4.25-4.011-0.055-2.342-1.768-3.978-4.166-3.978zM4.123 6.669c-1.543 0-2.621-1.024-2.621-2.491 0-1.492 1.088-2.494 2.705-2.494 1.582 0 2.629 0.985 2.664 2.494 0 1.49-1.105 2.491-2.748 2.491z">
            </path>
        </symbol>
        <symbol id="icon-plate-utensils" viewBox="0 0 32 32">
            <path
                d="M32 1.333v8c0 3.219-2.295 5.912-5.333 6.532v14.801c0 0.736-0.597 1.333-1.333 1.333s-1.333-0.597-1.333-1.333v-14.801c-3.039-0.62-5.333-3.312-5.333-6.532v-8c0-0.736 0.597-1.333 1.333-1.333s1.333 0.597 1.333 1.333v8c0 1.736 1.119 3.203 2.667 3.755v-11.755c0-0.736 0.597-1.333 1.333-1.333s1.333 0.597 1.333 1.333v11.755c1.548-0.552 2.667-2.019 2.667-3.755v-8c0-0.736 0.597-1.333 1.333-1.333s1.333 0.597 1.333 1.333zM19.637 28.832c-1.179 0.333-2.401 0.501-3.637 0.501-7.352 0-13.333-5.981-13.333-13.333 0-6.947 5.211-12.656 12.12-13.279 0.733-0.067 1.275-0.715 1.208-1.448-0.065-0.733-0.691-1.261-1.448-1.208-8.293 0.748-14.547 7.599-14.547 15.935 0 8.823 7.177 16 16 16 1.48 0 2.948-0.203 4.363-0.603 0.708-0.2 1.12-0.937 0.92-1.645s-0.933-1.116-1.645-0.92zM19.428 23.231c-1.075 0.511-2.227 0.769-3.428 0.769-4.412 0-8-3.588-8-8 0-3.956 2.947-7.36 6.856-7.919 0.729-0.104 1.236-0.779 1.131-1.508-0.104-0.729-0.783-1.231-1.508-1.131-5.213 0.745-9.144 5.285-9.144 10.559 0 5.881 4.785 10.667 10.667 10.667 1.6 0 3.139-0.345 4.572-1.028 0.665-0.316 0.948-1.112 0.632-1.777s-1.112-0.948-1.777-0.632z">
            </path>
        </symbol>
        <symbol id="icon-instagram-logo" viewBox="0 0 32 32">
            <path
                d="M31.563 16.063c0 2.175-0.044 4.356 0.012 6.531 0.094 3.85-2.325 6.825-5.406 8.15-1.238 0.531-2.538 0.813-3.881 0.813-4.206 0.006-8.419 0.063-12.625-0.019-3.169-0.063-5.775-1.387-7.644-4-0.981-1.375-1.45-2.938-1.45-4.631 0-4.481 0-8.956 0-13.438 0-3.656 1.781-6.213 4.944-7.875 1.375-0.719 2.869-1.025 4.425-1.031 4.081 0 8.169-0.025 12.25 0.012 3.169 0.025 5.813 1.238 7.762 3.787 1.087 1.425 1.613 3.063 1.613 4.862 0 2.275 0 4.556 0 6.838zM2.875 16.063c0 2.294 0 4.581 0 6.875 0 1.025 0.237 1.988 0.769 2.856 1.394 2.281 3.5 3.394 6.112 3.438 4.194 0.063 8.394 0.025 12.594 0.012 1.031 0 2.031-0.212 2.962-0.656 2.538-1.212 3.956-3.144 3.944-6.044-0.025-4.438-0.006-8.875-0.006-13.313 0-1.256-0.356-2.406-1.1-3.419-1.438-1.944-3.425-2.9-5.8-2.925-4.188-0.050-8.375-0.019-12.563-0.013-0.894 0-1.756 0.181-2.594 0.494-2.3 0.856-4.438 3.025-4.338 6.219 0.075 2.162 0.019 4.319 0.019 6.475z">
            </path>
            <path
                d="M16.1 22.688c-4.031 0-7.281-3.212-7.287-7.213-0.006-3.938 3.269-7.162 7.275-7.162 4.019-0.006 7.281 3.213 7.287 7.181 0 3.963-3.256 7.187-7.275 7.194zM16.1 20.375c2.744 0 4.969-2.194 4.962-4.894-0.006-2.675-2.231-4.863-4.962-4.863-2.744 0-4.981 2.181-4.981 4.875 0.006 2.7 2.238 4.887 4.981 4.881z">
            </path>
            <path
                d="M24.219 6.125c0.844 0 1.531 0.719 1.531 1.6-0.006 0.881-0.7 1.594-1.544 1.588-0.831-0.006-1.512-0.719-1.512-1.581-0.006-0.881 0.681-1.606 1.525-1.606z">
            </path>
        </symbol>
        <symbol id="icon-telegram-logo" viewBox="0 0 32 32">
            <path
                d="M28.907 3.967c-0.348-0.301-0.804-0.485-1.304-0.485-0.264 0-0.515 0.051-0.746 0.144l0.013-0.005-23.070 9.063c-0.749 0.3-1.269 1.020-1.269 1.861 0 0.966 0.684 1.772 1.595 1.959l0.013 0.002 5.86 1.172v7.319c0 0 0 0.001 0 0.002 0 1.104 0.895 1.999 1.999 1.999 0.553 0 1.053-0.224 1.415-0.587l3.243-3.243 4.922 4.331c0.348 0.31 0.809 0.5 1.314 0.5h0c0.222-0 0.435-0.036 0.635-0.102l-0.014 0.004c0.67-0.217 1.176-0.764 1.333-1.443l0.003-0.013 4.702-20.517c0.032-0.135 0.051-0.29 0.051-0.449 0-0.604-0.269-1.146-0.693-1.512l-0.003-0.002zM10.768 15.793l-6.236-1.247 17.46-6.859zM12 24.997v-5.926l3.152 2.774zM22.9 25.999l-10.299-9.063 14.831-10.711z">
            </path>
        </symbol>
        <symbol id="icon-twitter-logo" viewBox="0 0 44 32">
            <path
                d="M8.813 3.728l10.125 13.538-10.189 11.007h2.293l8.92-9.637 7.207 9.637h7.804l-10.695-14.3 9.484-10.245h-2.293l-8.215 8.875-6.638-8.875h-7.804zM12.185 5.417h3.585l15.831 21.166h-3.585l-15.831-21.166z">
            </path>
        </symbol>
        <symbol id="icon-link" viewBox="0 0 32 32">
            <path
                d="M18.31 11.266c-0.35-0.225-0.758-0.286-1.135-0.202-0.373 0.083-0.715 0.308-0.938 0.655-0.224 0.349-0.285 0.755-0.202 1.13 0.082 0.375 0.307 0.719 0.655 0.942 1.447 0.927 2.31 2.501 2.31 4.209 0 1.336-0.52 2.591-1.464 3.535l-6 6c-0.945 0.945-2.201 1.465-3.536 1.465-2.757 0-5-2.243-5-5 0-1.336 0.52-2.591 1.464-3.535l2.846-2.847c0.3-0.3 0.446-0.695 0.44-1.088-0.007-0.375-0.153-0.747-0.44-1.033-0.293-0.293-0.677-0.44-1.060-0.44-0.384 0-0.768 0.146-1.060 0.44l-2.846 2.847c-1.512 1.51-2.344 3.519-2.344 5.656 0 4.411 3.589 8 8 8 2.137 0 4.146-0.832 5.657-2.344l6-6c1.511-1.509 2.343-3.519 2.343-5.656 0-2.735-1.379-5.252-3.69-6.734zM24 0c-2.137 0-4.146 0.832-5.657 2.344l-6 6c-1.511 1.509-2.343 3.519-2.343 5.655 0 2.735 1.379 5.253 3.69 6.735 0.35 0.224 0.758 0.285 1.135 0.201 0.373-0.082 0.715-0.307 0.938-0.654 0.224-0.35 0.285-0.756 0.202-1.131-0.082-0.375-0.307-0.719-0.655-0.941-1.446-0.928-2.31-2.502-2.31-4.21 0-1.336 0.52-2.591 1.464-3.535l6-6c0.945-0.944 2.201-1.464 3.536-1.464 2.757 0 5 2.243 5 4.999 0 1.336-0.52 2.591-1.464 3.535l-2.846 2.846c-0.3 0.3-0.446 0.695-0.44 1.088 0.007 0.375 0.153 0.747 0.44 1.033 0.293 0.293 0.677 0.439 1.061 0.439s0.768-0.146 1.060-0.439l2.846-2.847c1.511-1.508 2.343-3.518 2.343-5.655 0-4.41-3.589-7.999-8-7.999z">
            </path>
        </symbol>
        <symbol id="icon-menu-button" viewBox="0 0 32 32">
            <path
                d="M3.2 6.4h25.6c1.766 0 3.2-1.432 3.2-3.2s-1.432-3.2-3.2-3.2h-25.6c-1.768 0-3.2 1.432-3.2 3.2s1.432 3.2 3.2 3.2zM28.8 12.8h-25.6c-1.768 0-3.2 1.432-3.2 3.2s1.432 3.2 3.2 3.2h25.6c1.766 0 3.2-1.432 3.2-3.2s-1.432-3.2-3.2-3.2zM28.8 25.6h-25.6c-1.768 0-3.2 1.432-3.2 3.2s1.432 3.2 3.2 3.2h25.6c1.766 0 3.2-1.432 3.2-3.2s-1.432-3.2-3.2-3.2z">
            </path>
        </symbol>
        <symbol id="icon-close" viewBox="0 0 32 32">
            <path
                d="M30.4 1.623c-0.891-0.891-2.331-0.891-3.223 0l-11.177 11.154-11.177-11.177c-0.891-0.891-2.331-0.891-3.223 0s-0.891 2.331 0 3.223l11.177 11.177-11.177 11.177c-0.891 0.891-0.891 2.331 0 3.223s2.331 0.891 3.223 0l11.177-11.177 11.177 11.177c0.891 0.891 2.331 0.891 3.223 0s0.891-2.331 0-3.223l-11.177-11.177 11.177-11.177c0.869-0.869 0.869-2.331 0-3.2z">
            </path>
        </symbol>
        <symbol id="icon-home" viewBox="0 0 28 32">
            <path
                d="M14.188 2.109c0.522 0 1.038 0.281 1.45 0.787l10.63 13.075v13.623c0 0.162-0.131 0.292-0.292 0.292v0h-6.591c-0 0-0.001 0-0.001 0-0.134 0-0.242-0.108-0.242-0.242 0-0 0-0.001 0-0.002v0-7.058c-0.002-1.579-1.281-2.859-2.859-2.861h-4.191c-1.579 0.002-2.859 1.282-2.861 2.861v7.062c0 0 0 0 0 0 0 0.13-0.103 0.237-0.231 0.243l-0.001 0h-6.598c-0.161 0-0.291-0.13-0.291-0.291v0-13.625l10.63-13.075c0.413-0.51 0.928-0.792 1.45-0.792zM14.188 0c-1.113 0-2.238 0.522-3.082 1.566l-11.056 13.597c-0.032 0.038-0.051 0.087-0.051 0.141v0 14.298c0 1.325 1.074 2.4 2.4 2.4v0h6.598c1.299 0 2.352-1.053 2.352-2.352v0-7.063c0-0 0-0.001 0-0.001 0-0.411 0.331-0.745 0.74-0.751h4.186c0.415 0.001 0.751 0.337 0.751 0.752 0 0 0 0 0 0v0 7.062c0 1.299 1.053 2.352 2.352 2.352v0h6.591c1.326 0 2.401-1.075 2.401-2.401v-14.297c0-0.054-0.019-0.103-0.051-0.141l0 0-11.046-13.595c-0.844-1.045-1.968-1.566-3.093-1.566z">
            </path>
        </symbol>
    </defs>
</svg>