<svg aria-hidden="true" style="position: absolute; width: 0; height: 0; overflow: hidden;" version="1.1"
    xmlns="http://www.w3.org/2000/svg" xmlns:xlink="http://www.w3.org/1999/xlink">
    <defs>
        <symbol id="icon-youtube-logo" viewBox="0 0 32 32">
            <path
                d="M28.834 8.343c-0.246-1.547-1.66-2.899-3.226-3.079-2.883-0.332-6.224-0.522-9.608-0.522-3.387 0-6.729 0.19-10.018 0.559l0.404-0.037c-1.56 0.179-2.974 1.531-3.221 3.084-0.37 2.3-0.582 4.951-0.582 7.651 0 2.703 0.212 5.356 0.62 7.944l-0.037-0.286c0.246 1.547 1.661 2.899 3.226 3.078 2.881 0.332 6.22 0.522 9.603 0.522 0.002 0 0.004 0 0.006 0h-0c0.002 0 0.004 0 0.006 0 3.383 0 6.721-0.19 10.006-0.559l-0.398 0.036c1.56-0.179 2.975-1.531 3.221-3.084 0.37-2.3 0.582-4.951 0.582-7.651 0-2.703-0.212-5.356-0.62-7.943l0.037 0.286zM26.859 23.343c-0.103 0.646-0.817 1.328-1.47 1.404-2.817 0.325-6.081 0.51-9.389 0.51s-6.57-0.185-9.78-0.546l0.394 0.036c-0.654-0.075-1.37-0.758-1.472-1.399-0.356-2.209-0.559-4.755-0.559-7.349 0-2.592 0.203-5.136 0.594-7.618l-0.036 0.275c0.103-0.647 0.819-1.33 1.467-1.404 2.818-0.325 6.083-0.51 9.392-0.51 3.307 0 6.57 0.185 9.78 0.546l-0.394-0.036c0.654 0.075 1.37 0.758 1.472 1.399 0.356 2.209 0.559 4.755 0.559 7.349 0 2.592-0.203 5.136-0.594 7.618l0.036-0.275zM20.555 15.168l-6-4c-0.156-0.105-0.348-0.168-0.555-0.168-0.552 0-1 0.448-1 1v0 8c0 0 0 0 0 0 0 0.552 0.448 1 1 1 0.207 0 0.399-0.063 0.558-0.17l-0.004 0.002 6-4c0.27-0.182 0.445-0.486 0.445-0.832s-0.175-0.65-0.442-0.83l-0.004-0.002zM15 18.131v-4.263l3.197 2.131z">
            </path>
        </symbol>
        <symbol id="icon-facebook-logo" viewBox="0 0 32 32">
            <path
                d="M25.65 2.932c0-1.719-1.195-2.932-2.914-2.932h-0.036c-0.217 0-0.434 0-0.634 0-0.271 0-0.543 0-0.833 0s-0.561 0-0.851 0c-0.634 0-1.14 0-1.611 0.018-2.063 0.072-3.909 0.778-5.357 2.027-1.466 1.267-2.407 3.023-2.715 5.068-0.145 0.977-0.163 1.919-0.163 2.824-0.38 0-0.778 0-1.158 0-0.398 0-1.448 0-2.244 0.814-0.796 0.796-0.796 1.846-0.796 2.244 0 1.285 0 2.606 0 3.891 0 0.452 0 1.484 0.833 2.299 0.796 0.778 1.846 0.778 2.281 0.778 0.362 0 0.742 0 1.104 0v1.321c0 2.534-0.018 5.086-0.018 7.62 0 0.489-0.018 1.484 0.778 2.281 0.796 0.814 1.792 0.814 2.281 0.814 0.507 0 1.032 0 1.538 0h2.172c0.796 0 1.774 0 2.57-0.778 0.814-0.796 0.814-1.792 0.814-2.57v-8.652c0 0 0.109 0 0.163 0 0.543 0 1.086 0 1.629 0 1.828 0 2.986-1.158 2.986-3.005 0-1.303 0-2.661 0-4 0-0.398 0-1.43-0.814-2.226-0.796-0.778-1.81-0.796-2.208-0.796-0.326 0-0.67-0.054-0.995-0.054-0.235 0-0.489-0.036-0.724-0.036h-0.018c0 0 0-0.109 0-0.181 0.308 0 0.615 0.018 0.941 0.018s0.67 0.018 1.014 0c1.81-0.036 2.95-1.158 2.968-2.932 0-0.941 0-1.882 0-2.805 0.036-0.362 0.036-0.706 0.018-1.050zM23.478 6.751c0 0.615-0.181 0.778-0.833 0.796-0.851 0.018-1.683 0-2.534 0.036-1.068 0.036-1.502 0.489-1.538 1.557-0.036 0.995 0 2.009 0 3.095 0.326 0 0.652 0 0.977 0 0.163 0 0.326 0 0.489 0 0 0 0 0 0.018 0 0.471 0 0.959-0.054 1.43-0.054 0.326 0 0.652-0.018 0.977-0.018 0.706 0 0.869 0.145 0.869 0.851 0 1.321 0 2.661 0 3.982 0 0.652-0.181 0.833-0.833 0.833-0.543 0-1.068 0-1.611 0-0.76 0-1.611 0-2.335 0 0 0.253 0 0.471 0 0.688 0 3.385 0 6.787 0 10.172 0 1.158-0.036 1.177-1.213 1.177-0.724 0-1.448 0-2.172 0-0.507 0-1.032 0-1.538 0-0.778 0-0.887-0.127-0.887-0.923 0-3.457 0.018-6.932 0.018-10.389 0-0.217 0-0.434 0-0.724-0.724 0-1.357 0-1.991 0-0.434 0-0.869 0-1.285 0-0.778 0-0.941-0.145-0.941-0.905 0-1.285 0-2.588 0-3.873 0-0.742 0.163-0.905 0.887-0.905 0.434 0 0.851 0 1.285 0 0.652 0 1.303 0 1.973 0 0.018-0.253 0.018-0.471 0.036-0.688 0.036-1.321-0.036-2.679 0.163-3.982 0.471-3.131 2.824-5.14 5.991-5.249 0.507-0.018 1.032-0.018 1.538-0.018 0.561 0 1.122 0.036 1.683 0.036 0.217 0 0.452 0.036 0.67 0.036h0.018c0.507 0 0.742 0.217 0.742 0.724-0.036 1.249-0.036 2.48-0.054 3.746z">
            </path>
        </symbol>
        <symbol id="icon-clock" viewBox="0 0 32 32">
            <path
                d="M16 32c-8.823 0-16-7.177-16-16s7.177-16 16-16 16 7.177 16 16-7.177 16-16 16zM16 2.667c-7.352 0-13.333 5.981-13.333 13.333s5.981 13.333 13.333 13.333 13.333-5.981 13.333-13.333-5.981-13.333-13.333-13.333zM22.667 16c0-0.737-0.596-1.333-1.333-1.333h-4v-6.667c0-0.737-0.597-1.333-1.333-1.333s-1.333 0.596-1.333 1.333v8c0 0.737 0.597 1.333 1.333 1.333h5.333c0.737 0 1.333-0.596 1.333-1.333z">
            </path>
        </symbol>
        <symbol id="icon-linkedin" viewBox="0 0 32 32">
            <path
                d="M9.472 10.208h-6.72c-0.48 0-0.832 0.352-0.832 0.8v18.88c0 0.448 0.352 0.8 0.8 0.8h6.72c0.448 0 0.8-0.352 0.8-0.8v-18.88c0.032-0.448-0.352-0.8-0.768-0.8zM8.672 29.088h-5.152v-17.28h5.12v17.28z">
            </path>
            <path
                d="M6.080 0.48c-2.528 0-4.608 2.048-4.608 4.608 0 2.528 2.080 4.608 4.608 4.608s4.608-2.048 4.608-4.608c0-2.56-2.048-4.608-4.608-4.608zM6.080 8.064c-1.664 0-3.008-1.344-3.008-3.008s1.344-3.008 3.008-3.008c1.664 0 3.008 1.344 3.008 3.008s-1.344 3.008-3.008 3.008z">
            </path>
            <path
                d="M22.816 9.76c-1.408 0-2.72 0.352-3.84 0.992v-0.544h-7.296c-0.448 0-0.8 0.352-0.8 0.8v18.88c0 0.448 0.352 0.8 0.8 0.8h6.72c0.448 0 0.8-0.352 0.8-0.8v-9.344c0-2.88 0.8-3.104 1.888-3.104 0.96 0 1.44 0.16 1.44 3.264v9.184c0 0.448 0.352 0.8 0.8 0.8h6.72c0.448 0 0.8-0.352 0.8-0.8v-10.304c-0.032-4.544-0.96-9.824-8.032-9.824zM29.216 29.088h-5.12v-8.384c0-1.952 0-4.864-3.040-4.864-3.072 0-3.488 2.528-3.488 4.704v8.544h-5.088v-17.28h4.896v2.4l1.344-1.28c0.608-0.576 1.984-1.568 4.096-1.568 5.312 0 6.4 3.296 6.4 8.224v9.504z">
            </path>
        </symbol>
        <symbol id="icon-linkedin-logo" viewBox="0 0 32 32">
            <path
                d="M6.984 9.019h-6.062c-0.415 0-0.751 0.336-0.751 0.751v21.191c0 0.415 0.336 0.751 0.751 0.751h6.063c0.415 0 0.751-0.337 0.751-0.751v-21.191c-0.001-0.415-0.336-0.751-0.752-0.751zM6.233 30.209h-4.56v-19.688h4.56v19.688zM23.886 8.761c-2.943 0-4.869 1.27-5.988 2.375l-0.138-1.438c-0.038-0.386-0.362-0.679-0.747-0.679h-0.015l-5.526 0.106c-0.203 0.004-0.395 0.089-0.533 0.237s-0.212 0.345-0.203 0.548c0.069 1.547 0.067 3.356 0.064 5.45l-0.001 15.708c0 0.415 0.337 0.751 0.751 0.751h6.063c0.415 0 0.751-0.336 0.751-0.751v-12.25c0-0.626 0.054-1.078 0.161-1.347 0.378-0.962 1.625-1.957 3.056-1.957 1.854 0 2.961 1.41 2.961 3.774v11.78c0 0.415 0.337 0.751 0.751 0.751h5.956c0.415 0 0.751-0.336 0.751-0.751v-12.549c0-6.11-3.034-9.757-8.114-9.757zM30.498 30.316h-4.454v-11.029c0-3.206-1.752-5.276-4.463-5.276-2.151 0-3.9 1.499-4.452 2.906-0.183 0.456-0.267 1.061-0.267 1.9v11.499h-4.56l0.001-14.955c0.002-1.779 0.005-3.353-0.037-4.75l4.067-0.078 0.234 2.422c0.038 0.385 0.361 0.679 0.748 0.679h0.128c0.259 0 0.5-0.133 0.637-0.353 0.443-0.708 2.171-3.018 5.809-3.018 4.202 0 6.612 3.009 6.612 8.255v11.798h-0.001zM4.207 0.182c-2.438 0-4.207 1.68-4.207 3.996 0 2.314 1.734 3.993 4.123 3.993 2.463 0 4.25-1.679 4.25-4.011-0.055-2.342-1.768-3.978-4.166-3.978zM4.123 6.669c-1.543 0-2.621-1.024-2.621-2.491 0-1.492 1.088-2.494 2.705-2.494 1.582 0 2.629 0.985 2.664 2.494 0 1.49-1.105 2.491-2.748 2.491z">
            </path>
        </symbol>
        <symbol id="icon-plate-utensils" viewBox="0 0 32 32">
            <path
                d="M32 1.333v8c0 3.219-2.295 5.912-5.333 6.532v14.801c0 0.736-0.597 1.333-1.333 1.333s-1.333-0.597-1.333-1.333v-14.801c-3.039-0.62-5.333-3.312-5.333-6.532v-8c0-0.736 0.597-1.333 1.333-1.333s1.333 0.597 1.333 1.333v8c0 1.736 1.119 3.203 2.667 3.755v-11.755c0-0.736 0.597-1.333 1.333-1.333s1.333 0.597 1.333 1.333v11.755c1.548-0.552 2.667-2.019 2.667-3.755v-8c0-0.736 0.597-1.333 1.333-1.333s1.333 0.597 1.333 1.333zM19.637 28.832c-1.179 0.333-2.401 0.501-3.637 0.501-7.352 0-13.333-5.981-13.333-13.333 0-6.947 5.211-12.656 12.12-13.279 0.733-0.067 1.275-0.715 1.208-1.448-0.065-0.733-0.691-1.261-1.448-1.208-8.293 0.748-14.547 7.599-14.547 15.935 0 8.823 7.177 16 16 16 1.48 0 2.948-0.203 4.363-0.603 0.708-0.2 1.12-0.937 0.92-1.645s-0.933-1.116-1.645-0.92zM19.428 23.231c-1.075 0.511-2.227 0.769-3.428 0.769-4.412 0-8-3.588-8-8 0-3.956 2.947-7.36 6.856-7.919 0.729-0.104 1.236-0.779 1.131-1.508-0.104-0.729-0.783-1.231-1.508-1.131-5.213 0.745-9.144 5.285-9.144 10.559 0 5.881 4.785 10.667 10.667 10.667 1.6 0 3.139-0.345 4.572-1.028 0.665-0.316 0.948-1.112 0.632-1.777s-1.112-0.948-1.777-0.632z">
            </path>
        </symbol>
        <symbol id="icon-instagram-logo" viewBox="0 0 32 32">
            <path
                d="M31.563 16.063c0 2.175-0.044 4.356 0.012 6.531 0.094 3.85-2.325 6.825-5.406 8.15-1.238 0.531-2.538 0.813-3.881 0.813-4.206 0.006-8.419 0.063-12.625-0.019-3.169-0.063-5.775-1.387-7.644-4-0.981-1.375-1.45-2.938-1.45-4.631 0-4.481 0-8.956 0-13.438 0-3.656 1.781-6.213 4.944-7.875 1.375-0.719 2.869-1.025 4.425-1.031 4.081 0 8.169-0.025 12.25 0.012 3.169 0.025 5.813 1.238 7.762 3.787 1.087 1.425 1.613 3.063 1.613 4.862 0 2.275 0 4.556 0 6.838zM2.875 16.063c0 2.294 0 4.581 0 6.875 0 1.025 0.237 1.988 0.769 2.856 1.394 2.281 3.5 3.394 6.112 3.438 4.194 0.063 8.394 0.025 12.594 0.012 1.031 0 2.031-0.212 2.962-0.656 2.538-1.212 3.956-3.144 3.944-6.044-0.025-4.438-0.006-8.875-0.006-13.313 0-1.256-0.356-2.406-1.1-3.419-1.438-1.944-3.425-2.9-5.8-2.925-4.188-0.050-8.375-0.019-12.563-0.013-0.894 0-1.756 0.181-2.594 0.494-2.3 0.856-4.438 3.025-4.338 6.219 0.075 2.162 0.019 4.319 0.019 6.475z">
            </path>
            <path
                d="M16.1 22.688c-4.031 0-7.281-3.212-7.287-7.213-0.006-3.938 3.269-7.162 7.275-7.162 4.019-0.006 7.281 3.213 7.287 7.181 0 3.963-3.256 7.187-7.275 7.194zM16.1 20.375c2.744 0 4.969-2.194 4.962-4.894-0.006-2.675-2.231-4.863-4.962-4.863-2.744 0-4.981 2.181-4.981 4.875 0.006 2.7 2.238 4.887 4.981 4.881z">
            </path>
            <path
                d="M24.219 6.125c0.844 0 1.531 0.719 1.531 1.6-0.006 0.881-0.7 1.594-1.544 1.588-0.831-0.006-1.512-0.719-1.512-1.581-0.006-0.881 0.681-1.606 1.525-1.606z">
            </path>
        </symbol>
        <symbol id="icon-telegram-logo" viewBox="0 0 32 32">
            <path
                d="M28.907 3.967c-0.348-0.301-0.804-0.485-1.304-0.485-0.264 0-0.515 0.051-0.746 0.144l0.013-0.005-23.070 9.063c-0.749 0.3-1.269 1.020-1.269 1.861 0 0.966 0.684 1.772 1.595 1.959l0.013 0.002 5.86 1.172v7.319c0 0 0 0.001 0 0.002 0 1.104 0.895 1.999 1.999 1.999 0.553 0 1.053-0.224 1.415-0.587l3.243-3.243 4.922 4.331c0.348 0.31 0.809 0.5 1.314 0.5h0c0.222-0 0.435-0.036 0.635-0.102l-0.014 0.004c0.67-0.217 1.176-0.764 1.333-1.443l0.003-0.013 4.702-20.517c0.032-0.135 0.051-0.29 0.051-0.449 0-0.604-0.269-1.146-0.693-1.512l-0.003-0.002zM10.768 15.793l-6.236-1.247 17.46-6.859zM12 24.997v-5.926l3.152 2.774zM22.9 25.999l-10.299-9.063 14.831-10.711z">
            </path>
        </symbol>
        <symbol id="icon-twitter-logo" viewBox="0 0 44 32">
            <path
                d="M8.813 3.728l10.125 13.538-10.189 11.007h2.293l8.92-9.637 7.207 9.637h7.804l-10.695-14.3 9.484-10.245h-2.293l-8.215 8.875-6.638-8.875h-7.804zM12.185 5.417h3.585l15.831 21.166h-3.585l-15.831-21.166z">
            </path>
        </symbol>
        <symbol id="icon-link" viewBox="0 0 32 32">
            <path
                d="M18.31 11.266c-0.35-0.225-0.758-0.286-1.135-0.202-0.373 0.083-0.715 0.308-0.938 0.655-0.224 0.349-0.285 0.755-0.202 1.13 0.082 0.375 0.307 0.719 0.655 0.942 1.447 0.927 2.31 2.501 2.31 4.209 0 1.336-0.52 2.591-1.464 3.535l-6 6c-0.945 0.945-2.201 1.465-3.536 1.465-2.757 0-5-2.243-5-5 0-1.336 0.52-2.591 1.464-3.535l2.846-2.847c0.3-0.3 0.446-0.695 0.44-1.088-0.007-0.375-0.153-0.747-0.44-1.033-0.293-0.293-0.677-0.44-1.060-0.44-0.384 0-0.768 0.146-1.060 0.44l-2.846 2.847c-1.512 1.51-2.344 3.519-2.344 5.656 0 4.411 3.589 8 8 8 2.137 0 4.146-0.832 5.657-2.344l6-6c1.511-1.509 2.343-3.519 2.343-5.656 0-2.735-1.379-5.252-3.69-6.734zM24 0c-2.137 0-4.146 0.832-5.657 2.344l-6 6c-1.511 1.509-2.343 3.519-2.343 5.655 0 2.735 1.379 5.253 3.69 6.735 0.35 0.224 0.758 0.285 1.135 0.201 0.373-0.082 0.715-0.307 0.938-0.654 0.224-0.35 0.285-0.756 0.202-1.131-0.082-0.375-0.307-0.719-0.655-0.941-1.446-0.928-2.31-2.502-2.31-4.21 0-1.336 0.52-2.591 1.464-3.535l6-6c0.945-0.944 2.201-1.464 3.536-1.464 2.757 0 5 2.243 5 4.999 0 1.336-0.52 2.591-1.464 3.535l-2.846 2.846c-0.3 0.3-0.446 0.695-0.44 1.088 0.007 0.375 0.153 0.747 0.44 1.033 0.293 0.293 0.677 0.439 1.061 0.439s0.768-0.146 1.060-0.439l2.846-2.847c1.511-1.508 2.343-3.518 2.343-5.655 0-4.41-3.589-7.999-8-7.999z">
            </path>
        </symbol>
        <symbol id="icon-menu-button" viewBox="0 0 32 32">
            <path
                d="M3.2 6.4h25.6c1.766 0 3.2-1.432 3.2-3.2s-1.432-3.2-3.2-3.2h-25.6c-1.768 0-3.2 1.432-3.2 3.2s1.432 3.2 3.2 3.2zM28.8 12.8h-25.6c-1.768 0-3.2 1.432-3.2 3.2s1.432 3.2 3.2 3.2h25.6c1.766 0 3.2-1.432 3.2-3.2s-1.432-3.2-3.2-3.2zM28.8 25.6h-25.6c-1.768 0-3.2 1.432-3.2 3.2s1.432 3.2 3.2 3.2h25.6c1.766 0 3.2-1.432 3.2-3.2s-1.432-3.2-3.2-3.2z">
            </path>
        </symbol>
        <symbol id="icon-close" viewBox="0 0 32 32">
            <path
                d="M30.4 1.623c-0.891-0.891-2.331-0.891-3.223 0l-11.177 11.154-11.177-11.177c-0.891-0.891-2.331-0.891-3.223 0s-0.891 2.331 0 3.223l11.177 11.177-11.177 11.177c-0.891 0.891-0.891 2.331 0 3.223s2.331 0.891 3.223 0l11.177-11.177 11.177 11.177c0.891 0.891 2.331 0.891 3.223 0s0.891-2.331 0-3.223l-11.177-11.177 11.177-11.177c0.869-0.869 0.869-2.331 0-3.2z">
            </path>
        </symbol>
        <symbol id="icon-home" viewBox="0 0 28 32">
            <path
                d="M14.188 2.109c0.522 0 1.038 0.281 1.45 0.787l10.63 13.075v13.623c0 0.162-0.131 0.292-0.292 0.292v0h-6.591c-0 0-0.001 0-0.001 0-0.134 0-0.242-0.108-0.242-0.242 0-0 0-0.001 0-0.002v0-7.058c-0.002-1.579-1.281-2.859-2.859-2.861h-4.191c-1.579 0.002-2.859 1.282-2.861 2.861v7.062c0 0 0 0 0 0 0 0.13-0.103 0.237-0.231 0.243l-0.001 0h-6.598c-0.161 0-0.291-0.13-0.291-0.291v0-13.625l10.63-13.075c0.413-0.51 0.928-0.792 1.45-0.792zM14.188 0c-1.113 0-2.238 0.522-3.082 1.566l-11.056 13.597c-0.032 0.038-0.051 0.087-0.051 0.141v0 14.298c0 1.325 1.074 2.4 2.4 2.4v0h6.598c1.299 0 2.352-1.053 2.352-2.352v0-7.063c0-0 0-0.001 0-0.001 0-0.411 0.331-0.745 0.74-0.751h4.186c0.415 0.001 0.751 0.337 0.751 0.752 0 0 0 0 0 0v0 7.062c0 1.299 1.053 2.352 2.352 2.352v0h6.591c1.326 0 2.401-1.075 2.401-2.401v-14.297c0-0.054-0.019-0.103-0.051-0.141l0 0-11.046-13.595c-0.844-1.045-1.968-1.566-3.093-1.566z">
            </path>
        </symbol>
        <symbol id="icon-feet" viewBox="0 0 26 32">
            <path
                d="M10.616 7.2c0.875 0 1.584 1.134 1.584 2.533s-0.709 2.533-1.584 2.533c-0.875 0-1.584-1.134-1.584-2.533s0.709-2.533 1.584-2.533zM7.288 7.992c0.525 0 0.951 0.709 0.951 1.583s-0.426 1.583-0.951 1.583c-0.525 0-0.951-0.709-0.951-1.583s0.426-1.583 0.951-1.583zM4.595 8.783c0.525 0 0.951 0.567 0.951 1.266s-0.426 1.266-0.951 1.266c-0.525 0-0.951-0.567-0.951-1.266s0.426-1.266 0.951-1.266zM2.377 10.208c0.525 0 0.951 0.567 0.951 1.266s-0.426 1.266-0.951 1.266c-0.525 0-0.951-0.567-0.951-1.266s0.426-1.266 0.951-1.266zM0.634 12.424c0.35 0 0.634 0.425 0.634 0.95s-0.284 0.95-0.634 0.95c-0.35 0-0.634-0.425-0.634-0.95s0.284-0.95 0.634-0.95zM3.961 12.899c5.704-2.849 9.66 2.412 5.070 7.915-3.169 3.799 5.788 9.842 0 11.081-4.436 0.95-3.047-4.814-4.436-7.282-5.704-10.131-0.634-11.714-0.634-11.714z">
            </path>
            <path
                d="M15.784 0c-0.875 0-1.584 1.134-1.584 2.533s0.709 2.533 1.584 2.533c0.875 0 1.584-1.134 1.584-2.533s-0.709-2.533-1.584-2.533zM19.112 0.792c-0.525 0-0.951 0.709-0.951 1.583s0.426 1.583 0.951 1.583c0.525 0 0.951-0.709 0.951-1.583s-0.426-1.583-0.951-1.583zM21.805 1.583c-0.525 0-0.951 0.567-0.951 1.266s0.426 1.266 0.951 1.266c0.525 0 0.951-0.567 0.951-1.266s-0.426-1.266-0.951-1.266zM24.023 3.008c-0.525 0-0.951 0.567-0.951 1.266s0.426 1.266 0.951 1.266c0.525 0 0.951-0.567 0.951-1.266s-0.426-1.266-0.951-1.266zM25.766 5.224c-0.35 0-0.634 0.425-0.634 0.95s0.284 0.95 0.634 0.95c0.35 0 0.634-0.425 0.634-0.95s-0.284-0.95-0.634-0.95zM22.439 5.699c-5.704-2.849-9.66 2.412-5.070 7.915 3.169 3.799-5.788 9.842 0 11.081 4.436 0.95 3.047-4.814 4.436-7.282 5.704-10.131 0.634-11.714 0.634-11.714z">
            </path>
        </symbol>
        <symbol id="icon-tips" viewBox="0 0 32 32">
            <path
                d="M15.942 4.002c-4.399 0.133-8.133 3.733-8.266 8-0.133 2.933 1.2 5.466 3.333 7.066 0.933 0.667 1.466 1.867 1.466 2.933h7.199c0-1.067 0.534-2.133 1.333-2.933 2.133-1.466 3.466-4 3.466-6.666 0-4.666-3.867-8.532-8.532-8.399l0.001-0.001zM12.476 23.201v1.2c0 1.466 0.8 2 1.867 2.266 0.266 0.8 0.933 1.333 1.733 1.333s1.466-0.534 1.733-1.333c1.067-0.266 1.867-0.8 1.867-2.266v-1.2h-7.2z">
            </path>
        </symbol>
        <symbol id="icon-ingredients-plate" viewBox="0 0 32 32">
            <path
                d="M14.933 17.067c0 0.295-0.239 0.533-0.533 0.533s-0.533-0.239-0.533-0.533c0-0.295 0.239-0.533 0.533-0.533s0.533 0.239 0.533 0.533z">
            </path>
            <path
                d="M16.533 14.933c0 0.295-0.239 0.533-0.533 0.533s-0.533-0.239-0.533-0.533c0-0.295 0.239-0.533 0.533-0.533s0.533 0.239 0.533 0.533z">
            </path>
            <path
                d="M14.933 13.867c0 0.295-0.239 0.533-0.533 0.533s-0.533-0.239-0.533-0.533c0-0.295 0.239-0.533 0.533-0.533s0.533 0.239 0.533 0.533z">
            </path>
            <path
                d="M16.533 18.667c0 0.295-0.239 0.533-0.533 0.533s-0.533-0.239-0.533-0.533c0-0.295 0.239-0.533 0.533-0.533s0.533 0.239 0.533 0.533z">
            </path>
            <path
                d="M30.777 14.023c-0.209-0.209-0.546-0.209-0.754 0l-7.31 7.31h-7.246c0-0.294-0.239-0.533-0.533-0.533s-0.533 0.239-0.533 0.533h-8c-0.294 0-0.533 0.238-0.533 0.533v3.2c0 2.471 1.304 4.638 3.256 5.867h-2.136l-2.615-0.523c-0.289-0.060-0.57 0.129-0.628 0.418s0.13 0.57 0.419 0.628l2.667 0.533c0.035 0.006 0.069 0.010 0.105 0.010h20.267c0.035 0 0.070-0.004 0.105-0.010l2.667-0.533c0.289-0.058 0.476-0.339 0.418-0.628-0.057-0.289-0.338-0.478-0.627-0.418l-2.615 0.523h-2.136c1.952-1.228 3.256-3.396 3.256-5.867v-3.2c0-0.295-0.239-0.533-0.533-0.533h-3.513l6.556-6.556c0.208-0.209 0.208-0.546-0-0.754z">
            </path>
            <path
                d="M10.814 7.484c0.201-0.202 0.312-0.469 0.312-0.754s-0.111-0.553-0.312-0.754c-0.403-0.403-1.106-0.403-1.509 0-0.2 0.2-0.554 0.2-0.754 0-0.202-0.202-0.469-0.313-0.754-0.313s-0.553 0.111-0.754 0.313c-0.202 0.202-0.313 0.469-0.313 0.754s0.111 0.553 0.313 0.754c0.1 0.1 0.156 0.235 0.156 0.377s-0.057 0.277-0.156 0.377c-0.416 0.416-0.416 1.093 0 1.509 0.403 0.403 1.105 0.403 1.508 0 0.416-0.416 0.416-1.093 0-1.509-0.104-0.104-0.156-0.24-0.156-0.377s0.052-0.273 0.156-0.377c0.209-0.209 0.546-0.209 0.754 0 0.403 0.403 1.105 0.403 1.509 0z">
            </path>
            <path
                d="M10.689 15.243c0.413 0 0.822-0.159 1.132-0.469l4.021-4.021c0.547-0.547 0.625-1.406 0.185-2.042l-5.554-8.022c-0.271-0.391-0.698-0.641-1.172-0.683-0.476-0.040-0.939 0.127-1.275 0.463l-6.49 6.489c-0.337 0.336-0.505 0.802-0.462 1.275s0.292 0.901 0.683 1.171l8.023 5.555c0.276 0.191 0.594 0.284 0.91 0.284zM7.797 11.126c-0.57 0-1.106-0.222-1.508-0.625-0.715-0.715-0.816-1.816-0.301-2.639-0.211-0.336-0.324-0.725-0.324-1.132 0-0.57 0.222-1.105 0.625-1.508 0.69-0.691 1.833-0.808 2.64-0.301 0.807-0.507 1.949-0.389 2.639 0.301 0.403 0.403 0.625 0.938 0.625 1.508s-0.222 1.106-0.625 1.508c-0.435 0.435-1.031 0.658-1.643 0.621 0.037 0.59-0.17 1.192-0.619 1.642-0.403 0.403-0.939 0.625-1.509 0.625z">
            </path>
        </symbol>
        <symbol id="icon-ingredients" viewBox="0 0 32 32">
            <path
                d="M18.56 0c-0.707 0-1.28 0.575-1.28 1.28v1.28c0 0.705 0.573 1.28 1.28 1.28h6.4c0.707 0 1.28-0.575 1.28-1.28v-1.28c0-0.705-0.573-1.28-1.28-1.28zM17.98 5.040c-0.595 1.112-1.107 2.548-1.48 3.7l9.44 5.34h2.22v-0.12c0-1.485-1.22-6.232-2.66-8.9-0.172 0.037-0.358 0.060-0.54 0.060h-6.4c-0.2 0-0.395-0.037-0.58-0.080zM9.36 8.82c-3.195 0-5.72 2.168-6.38 5.26h4.86l4.7-4.44c-0.963-0.537-2.045-0.82-3.18-0.82zM14.84 9.4c-0.133 0.015-0.258 0.082-0.36 0.18l-4.78 4.5h13.64l-8.1-4.6c-0.123-0.070-0.268-0.095-0.4-0.080zM1.82 15.36c-1.005 0-1.82 0.815-1.82 1.82v2.12c0 1.005 0.815 1.82 1.82 1.82h28.36c1.005 0 1.82-0.815 1.82-1.82v-2.12c0-1.005-0.815-1.82-1.82-1.82zM1.92 22.4v0.64c0 0.125 0.005 0.195 2.2 7.32 0.013 0.043 0.058 0.14 0.080 0.18 0.383 0.685 0.803 1.46 1.7 1.46h20.2c1.113 0 1.495-0.955 1.78-1.64 2.192-7.125 2.2-7.195 2.2-7.32v-0.64h-6.4v6.4h-1.92v-6.4h-2.56v6.4h-1.92v-6.4h-2.56v6.4h-1.92v-6.4h-2.56v6.4h-1.92v-6.4z">
            </path>
        </symbol>
        <symbol id="icon-cook-hat" viewBox="0 0 32 32">
            <path d="M7.453 25.589h17.094v3.128h-17.094v-3.128z"></path>
            <path
                d="M25.225 6.202c-0.52 0-1.023 0.060-1.509 0.171 0.556 0.831 0.981 1.757 1.246 2.748h-1.083c-1.026-3.379-4.165-5.838-7.879-5.838s-6.853 2.459-7.879 5.838h-1.083c0.265-0.991 0.69-1.917 1.246-2.748-0.485-0.111-0.989-0.171-1.509-0.171-3.742 0-6.775 3.033-6.775 6.774s3.033 6.776 6.775 6.776c0.229 0 0.454-0.012 0.678-0.034v4.62h17.094v-4.62c0.224 0.022 0.449 0.034 0.678 0.034 3.742 0 6.775-3.034 6.775-6.776s-3.033-6.774-6.775-6.774zM13.342 22.671h-1.042v-5.629h1.042v5.629zM19.7 22.671h-1.042v-5.629h1.042v5.629z">
            </path>
        </symbol>
        <symbol id="icon-star" viewBox="0 0 32 32">
            <path
                d="M12.204 7.211c1.689-3.030 2.533-4.545 3.796-4.545s2.107 1.515 3.796 4.545l0.437 0.784c0.48 0.861 0.72 1.291 1.094 1.575s0.84 0.389 1.772 0.6l0.849 0.192c3.279 0.742 4.919 1.113 5.309 2.368s-0.728 2.562-2.964 5.176l-0.578 0.676c-0.635 0.743-0.953 1.114-1.096 1.574s-0.095 0.955 0.001 1.947l0.087 0.902c0.338 3.488 0.507 5.232-0.514 6.008s-2.557 0.068-5.627-1.345l-0.794-0.366c-0.873-0.402-1.309-0.603-1.771-0.603s-0.899 0.201-1.771 0.603l-0.794 0.366c-3.071 1.414-4.606 2.121-5.627 1.345s-0.852-2.519-0.514-6.008l0.087-0.902c0.096-0.991 0.144-1.487 0.001-1.947s-0.461-0.831-1.096-1.574l-0.578-0.676c-2.236-2.614-3.354-3.922-2.964-5.176s2.030-1.626 5.309-2.368l0.848-0.192c0.932-0.211 1.398-0.316 1.772-0.6s0.614-0.714 1.094-1.575l0.437-0.784z">
            </path>
        </symbol>
        <symbol id="icon-arrow" viewBox="0 0 32 32">
            <path
                d="M7.609 11.614c-0.521 0.521-0.521 1.365 0 1.886l6.523 6.517c1.042 1.041 2.729 1.040 3.77-0.001l6.52-6.52c0.521-0.521 0.521-1.365 0-1.886s-1.365-0.521-1.886 0l-5.581 5.581c-0.521 0.521-1.365 0.521-1.886 0l-5.576-5.576c-0.521-0.521-1.365-0.521-1.886 0z">
            </path>
        </symbol>
        <symbol id="icon-check" viewBox="0 0 32 32">
            <path
                d="M13.333 24c-0.002 0-0.005 0-0.008 0-0.366 0-0.698-0.148-0.939-0.387l-6.667-6.667c-0.242-0.242-0.392-0.577-0.392-0.947 0-0.739 0.599-1.339 1.339-1.339 0.37 0 0.704 0.15 0.947 0.392v0l5.72 5.733 11.053-11.067c0.242-0.242 0.577-0.392 0.947-0.392 0.739 0 1.339 0.599 1.339 1.339 0 0.37-0.15 0.704-0.392 0.947l-12 12c-0.241 0.239-0.573 0.387-0.939 0.387-0.003 0-0.005 0-0.008-0h0z">
            </path>
        </symbol>

        <symbol id="icon-foot-bath" viewBox="0 0 32 32">
            <path
                d="M18.642 5.936c-0.204 0.822-0.1 1.642 0.316 2.221 0.126 0.176 0.323 0.288 0.539 0.307 0.057 0.005 0.114 0.007 0.172 0.007 0.658 0 1.343-0.322 1.898-0.87 0.61 0.587 1.372 0.909 2.082 0.837 0.216-0.022 0.411-0.136 0.535-0.314 0.408-0.583 0.502-1.404 0.288-2.224 0.813-0.234 1.472-0.734 1.765-1.383 0.089-0.198 0.088-0.424-0.004-0.621-0.301-0.646-0.965-1.137-1.782-1.362 0.204-0.822 0.1-1.642-0.315-2.221-0.126-0.176-0.323-0.288-0.539-0.307-0.71-0.062-1.467 0.267-2.070 0.862-0.61-0.587-1.372-0.908-2.081-0.837-0.216 0.021-0.411 0.136-0.535 0.313-0.408 0.583-0.502 1.403-0.288 2.224-0.814 0.234-1.472 0.734-1.766 1.384-0.089 0.197-0.088 0.424 0.004 0.62 0.301 0.646 0.965 1.137 1.782 1.362zM19.656 3.911h0.014c0.268 0 0.515-0.144 0.647-0.377s0.129-0.519-0.009-0.749l-0.004-0.006c-0.251-0.429-0.334-0.859-0.303-1.183 0.296 0.131 0.63 0.412 0.881 0.839l0.004 0.007c0.132 0.233 0.379 0.377 0.647 0.377 0 0 0.001 0 0.001 0 0.268-0 0.516-0.145 0.647-0.379l0.005-0.009c0.246-0.432 0.577-0.719 0.873-0.854 0.034 0.323-0.043 0.755-0.291 1.189l-0.007 0.012c-0.131 0.232-0.127 0.515 0.008 0.744s0.382 0.369 0.649 0.365l0.010-0c0.498-0.007 0.911 0.141 1.176 0.329-0.262 0.191-0.673 0.34-1.168 0.343h-0.014c-0.267 0-0.514 0.143-0.646 0.375s-0.13 0.517 0.006 0.747l0.005 0.009c0.251 0.429 0.334 0.859 0.303 1.183-0.297-0.132-0.632-0.414-0.883-0.844l-0.007-0.012c-0.134-0.228-0.378-0.367-0.642-0.367-0.003 0-0.006 0-0.009 0-0.267 0.003-0.512 0.149-0.642 0.382l-0.003 0.006c-0.246 0.432-0.577 0.719-0.873 0.854-0.034-0.323 0.042-0.753 0.288-1.184l0.007-0.012c0.133-0.232 0.131-0.516-0.004-0.747-0.134-0.228-0.378-0.367-0.642-0.367-0.003 0-0.006 0-0.009 0l-0.010 0c-0.501 0.004-0.911-0.141-1.176-0.329 0.262-0.191 0.673-0.34 1.168-0.343zM16 18.309c-3.478 0-5.97 0.232-7.417 0.478 1.448 0.246 3.939 0.478 7.417 0.478 3.692 0 6.272-0.262 7.673-0.524-0.206-0.172-0.312-0.451-0.25-0.732 0.089-0.401 0.485-0.654 0.887-0.566 0.655 0.145 1.873 0.414 1.873 1.343 0 0.799-0.921 1.081-1.268 1.187-0.515 0.158-1.237 0.297-2.145 0.415-1.813 0.235-4.217 0.364-6.769 0.364s-4.956-0.129-6.77-0.364c-0.908-0.118-1.63-0.257-2.145-0.415-0.347-0.106-1.268-0.388-1.268-1.187s0.921-1.081 1.268-1.187c0.515-0.158 1.237-0.297 2.145-0.415 1.813-0.235 4.217-0.364 6.77-0.364 0.411 0 0.744 0.333 0.744 0.744s-0.333 0.744-0.744 0.744zM31.756 18.746c0 3.566-1.657 6.911-4.665 9.417-1.491 1.243-3.228 2.205-5.117 2.855 0.025 0.074 0.039 0.154 0.039 0.237 0 0.411-0.333 0.744-0.744 0.744h-5.19c-0.027 0-0.053 0-0.079 0s-0.052-0-0.078-0h-5.191c-0.411 0-0.744-0.333-0.744-0.744 0-0.085 0.014-0.166 0.040-0.242-0.46-0.158-0.911-0.334-1.351-0.529-0.376-0.166-0.546-0.605-0.38-0.981s0.605-0.546 0.981-0.38c2.032 0.898 4.329 1.378 6.647 1.388h0.151c6.917-0.030 12.685-4.14 13.939-9.554-0.8 0.439-1.875 0.827-3.22 1.164-2.893 0.723-6.727 1.121-10.795 1.121s-7.903-0.398-10.796-1.121c-1.347-0.337-2.422-0.726-3.222-1.165 0.212 0.918 0.557 1.811 1.035 2.671 0.199 0.359 0.070 0.812-0.29 1.011s-0.812 0.070-1.011-0.29c-0.977-1.76-1.472-3.645-1.472-5.604 0-0 0-0 0-0 0-1.417 1.669-2.553 4.96-3.375 2.893-0.723 6.727-1.121 10.796-1.121 0.411 0 0.744 0.333 0.744 0.744s-0.333 0.744-0.744 0.744c-3.951 0-7.657 0.383-10.435 1.077-3.145 0.786-3.833 1.661-3.834 1.932s0.689 1.146 3.834 1.932c2.778 0.694 6.484 1.077 10.435 1.077s7.657-0.383 10.435-1.077c3.145-0.786 3.834-1.661 3.834-1.932 0-0.449-1.322-1.435-4.867-2.167-0.402-0.083-0.661-0.477-0.578-0.879s0.477-0.662 0.879-0.578c4.018 0.829 6.055 2.049 6.055 3.624zM18.64 18.442c0.126 0.062 0.289 0.087 0.469 0.087 0.64 0 1.492-0.313 1.611-0.357 0.774-0.292 1.829-0.861 2.467-1.915 1.227-2.027 1.127-4.257-0.226-5.076-0.698-0.422-1.616-0.388-2.519 0.092-0.793 0.422-1.532 1.154-2.082 2.063-0.967 1.597-0.521 3.517-0.361 4.067 0.202 0.698 0.402 0.919 0.64 1.038zM19.633 14.107c0.407-0.673 0.957-1.227 1.508-1.52 0.267-0.142 0.515-0.214 0.722-0.214 0.126 0 0.238 0.027 0.328 0.082 0.538 0.326 0.534 1.692-0.277 3.033-0.576 0.951-1.837 1.384-2.485 1.514-0.183-0.624-0.38-1.928 0.204-2.894zM8.338 25.47c-0.128-0.233-0.358-0.423-1.064-0.596-0.557-0.136-2.494-0.501-4.049 0.533-0.885 0.588-1.585 1.358-1.973 2.168-0.442 0.923-0.436 1.842 0.015 2.52 0.424 0.638 1.194 0.995 2.133 0.995 0.061 0 0.123-0.002 0.185-0.005 0.897-0.044 1.878-0.392 2.763-0.98 1.026-0.682 1.55-1.761 1.808-2.546 0.051-0.155 0.49-1.53 0.182-2.090zM5.524 28.866c-0.655 0.435-1.388 0.702-2.012 0.733-0.485 0.024-0.852-0.096-1.006-0.328s-0.122-0.616 0.088-1.055c0.27-0.563 0.8-1.136 1.455-1.571 0.529-0.352 1.177-0.461 1.754-0.461 0.448 0 0.854 0.066 1.13 0.134-0.103 0.653-0.482 1.932-1.408 2.547zM22.538 27.127c-0.182-0.368-0.031-0.814 0.338-0.996 1.245-0.615 2.265-1.488 3.031-2.594 0.234-0.338 0.697-0.422 1.035-0.188s0.422 0.697 0.188 1.035c-0.911 1.316-2.121 2.353-3.595 3.081-0.106 0.052-0.218 0.077-0.329 0.077-0.274 0-0.538-0.152-0.668-0.415zM11.684 10.261c0.747 0.926 1.738 1.425 2.437 1.681 0.373 0.136 0.953 0.315 1.426 0.315 0.21 0 0.4-0.035 0.54-0.126 0.311-0.2 0.366-0.542 0.387-0.67 0.094-0.582 0.083-2.588-1.161-4.13-1.538-1.905-3.418-2.672-4.469-1.823-0.33 0.267-0.832 0.915-0.486 2.263 0.206 0.801 0.677 1.685 1.326 2.49zM11.778 6.667c0.020-0.013 0.053-0.020 0.098-0.020 0.327 0 1.275 0.375 2.279 1.62 0.616 0.763 0.819 1.767 0.861 2.404-0.62-0.173-1.557-0.577-2.175-1.344-1.142-1.415-1.202-2.52-1.063-2.661z">
            </path>
        </symbol>
        <symbol id="icon-arrow-bottom" viewBox="0 0 32 32">
            <path
                d="M9.756 9.756l4.79-4.79v25.579c-0 0.803 0.651 1.454 1.454 1.454s1.455-0.651 1.455-1.455v-25.579l4.79 4.79c0.284 0.284 0.656 0.426 1.028 0.426s0.745-0.142 1.028-0.426c0.568-0.568 0.568-1.489 0-2.057l-7.272-7.272c-0.034-0.034-0.070-0.066-0.107-0.097-0.016-0.014-0.034-0.025-0.050-0.038-0.021-0.016-0.042-0.032-0.064-0.047-0.020-0.014-0.042-0.025-0.063-0.038-0.020-0.012-0.039-0.024-0.060-0.035s-0.043-0.021-0.065-0.032c-0.021-0.010-0.042-0.021-0.064-0.029s-0.043-0.016-0.065-0.024c-0.023-0.008-0.046-0.017-0.070-0.024-0.022-0.006-0.043-0.011-0.065-0.017-0.024-0.006-0.048-0.013-0.073-0.018s-0.050-0.008-0.075-0.011c-0.022-0.003-0.043-0.007-0.066-0.009-0.046-0.005-0.093-0.007-0.139-0.007-0.001-0-0.003-0-0.004-0s-0.003 0-0.004 0c-0.046 0-0.093 0.002-0.139 0.007-0.022 0.002-0.044 0.006-0.066 0.009-0.025 0.004-0.050 0.006-0.075 0.011s-0.049 0.012-0.073 0.018c-0.022 0.005-0.044 0.010-0.065 0.017-0.024 0.007-0.047 0.016-0.070 0.024-0.022 0.008-0.043 0.015-0.065 0.024s-0.043 0.020-0.063 0.030c-0.022 0.010-0.044 0.020-0.065 0.032s-0.040 0.023-0.060 0.035c-0.021 0.013-0.042 0.024-0.063 0.038-0.022 0.015-0.043 0.031-0.064 0.047-0.017 0.013-0.034 0.024-0.050 0.038-0.037 0.031-0.073 0.063-0.107 0.097l-7.272 7.273c-0.568 0.568-0.568 1.489 0 2.057s1.489 0.568 2.057-0z">
            </path>
        </symbol>
    </defs>
</svg>